{
	"asset":{
		"generator":"Khronos glTF Blender I/O v3.6.28",
		"version":"2.0"
	},
	"scene":0,
	"scenes":[
		{
			"name":"Scene",
			"nodes":[
				0
			]
		}
	],
	"nodes":[
		{
			"mesh":0,
			"name":"Cubo.003",
			"rotation":[
				0,
				0.7071068286895752,
				0,
				0.7071068286895752
			],
			"scale":[
				0.12290558964014053,
				1.0401195287704468,
				0.57233065366745
			],
			"translation":[
				-1.440529227256775,
				1.942478895187378,
				1.8579925298690796
			]
		}
	],
	"materials":[
		{
			"doubleSided":true,
			"name":"marco",
			"pbrMetallicRoughness":{
				"metallicFactor":0,
				"roughnessFactor":0.5
			}
		},
		{
			"doubleSided":true,
			"name":"puerta",
			"pbrMetallicRoughness":{
				"baseColorFactor":[
					0.0535903237760067,
					0.015980321913957596,
					0,
					1
				],
				"metallicFactor":0,
				"roughnessFactor":0.5
			}
		},
		{
			"doubleSided":true,
			"name":"techo",
			"pbrMetallicRoughness":{
				"baseColorFactor":[
					0.18325923383235931,
					0.03899481147527695,
					0.006998943630605936,
					1
				],
				"metallicFactor":0,
				"roughnessFactor":0.5
			}
		},
		{
			"doubleSided":true,
			"name":"paredes",
			"pbrMetallicRoughness":{
				"baseColorFactor":[
					1,
					0.25491198897361755,
					0.056699831038713455,
					1
				],
				"metallicFactor":0,
				"roughnessFactor":0.5
			}
		},
		{
			"doubleSided":true,
			"name":"escaleras",
			"pbrMetallicRoughness":{
				"baseColorFactor":[
					0.2754337787628174,
					0.2754337787628174,
					0.2754337787628174,
					1
				],
				"metallicFactor":0,
				"roughnessFactor":0.5
			}
		},
		{
			"doubleSided":true,
			"name":"marco.001",
			"pbrMetallicRoughness":{
				"metallicFactor":0,
				"roughnessFactor":0.5
			}
		},
		{
			"doubleSided":true,
			"name":"ventana",
			"pbrMetallicRoughness":{
				"baseColorFactor":[
					0.12366244196891785,
					0.2986493706703186,
					0.32355454564094543,
					1
				],
				"metallicFactor":0,
				"roughnessFactor":0.5
			}
		},
		{
			"doubleSided":true,
			"name":"cuadro",
			"pbrMetallicRoughness":{
				"baseColorFactor":[
					0.3694130480289459,
					0.3694130480289459,
					0.3694130480289459,
					1
				],
				"metallicFactor":0,
				"roughnessFactor":0.5
			}
		},
		{
			"doubleSided":true,
			"name":"letra",
			"pbrMetallicRoughness":{
				"baseColorFactor":[
					0.8000000715255737,
					0.20726889371871948,
					0,
					1
				],
				"metallicFactor":0,
				"roughnessFactor":0.5
			}
		}
	],
	"meshes":[
		{
			"name":"Cubo.003",
			"primitives":[
				{
					"attributes":{
						"POSITION":0,
						"NORMAL":1,
						"TEXCOORD_0":2,
						"TEXCOORD_1":3
					},
					"indices":4,
					"material":0
				},
				{
					"attributes":{
						"POSITION":5,
						"NORMAL":6,
						"TEXCOORD_0":7,
						"TEXCOORD_1":8
					},
					"indices":9,
					"material":1
				},
				{
					"attributes":{
						"POSITION":10,
						"NORMAL":11,
						"TEXCOORD_0":12,
						"TEXCOORD_1":13
					},
					"indices":14,
					"material":2
				},
				{
					"attributes":{
						"POSITION":15,
						"NORMAL":16,
						"TEXCOORD_0":17,
						"TEXCOORD_1":18
					},
					"indices":19,
					"material":3
				},
				{
					"attributes":{
						"POSITION":20,
						"NORMAL":21,
						"TEXCOORD_0":22,
						"TEXCOORD_1":23
					},
					"indices":24,
					"material":4
				},
				{
					"attributes":{
						"POSITION":25,
						"NORMAL":26,
						"TEXCOORD_0":27,
						"TEXCOORD_1":28
					},
					"indices":29,
					"material":5
				},
				{
					"attributes":{
						"POSITION":30,
						"NORMAL":31,
						"TEXCOORD_0":32,
						"TEXCOORD_1":33
					},
					"indices":34,
					"material":6
				},
				{
					"attributes":{
						"POSITION":35,
						"NORMAL":36,
						"TEXCOORD_0":37,
						"TEXCOORD_1":38
					},
					"indices":39,
					"material":7
				},
				{
					"attributes":{
						"POSITION":40,
						"NORMAL":41,
						"TEXCOORD_0":42,
						"TEXCOORD_1":43
					},
					"indices":44,
					"material":8
				}
			]
		}
	],
	"accessors":[
		{
			"bufferView":0,
			"componentType":5126,
			"count":116,
			"max":[
				1,
				1,
				1.445359230041504
			],
			"min":[
				-29.548019409179688,
				-1.7097783088684082,
				-1
			],
			"type":"VEC3"
		},
		{
			"bufferView":1,
			"componentType":5126,
			"count":116,
			"type":"VEC3"
		},
		{
			"bufferView":2,
			"componentType":5126,
			"count":116,
			"type":"VEC2"
		},
		{
			"bufferView":3,
			"componentType":5126,
			"count":116,
			"type":"VEC2"
		},
		{
			"bufferView":4,
			"componentType":5123,
			"count":204,
			"type":"SCALAR"
		},
		{
			"bufferView":5,
			"componentType":5126,
			"count":8,
			"max":[
				-1,
				0.9028609991073608,
				1.0158675909042358
			],
			"min":[
				-29.095674514770508,
				-1.612639307975769,
				-0.9028609991073608
			],
			"type":"VEC3"
		},
		{
			"bufferView":6,
			"componentType":5126,
			"count":8,
			"type":"VEC3"
		},
		{
			"bufferView":7,
			"componentType":5126,
			"count":8,
			"type":"VEC2"
		},
		{
			"bufferView":8,
			"componentType":5126,
			"count":8,
			"type":"VEC2"
		},
		{
			"bufferView":9,
			"componentType":5123,
			"count":12,
			"type":"SCALAR"
		},
		{
			"bufferView":10,
			"componentType":5126,
			"count":327,
			"max":[
				47.5080680847168,
				2.986074209213257,
				6.895183086395264
			],
			"min":[
				-36.69835662841797,
				-1.841430902481079,
				-16.962583541870117
			],
			"type":"VEC3"
		},
		{
			"bufferView":11,
			"componentType":5126,
			"count":327,
			"type":"VEC3"
		},
		{
			"bufferView":12,
			"componentType":5126,
			"count":327,
			"type":"VEC2"
		},
		{
			"bufferView":13,
			"componentType":5126,
			"count":327,
			"type":"VEC2"
		},
		{
			"bufferView":14,
			"componentType":5123,
			"count":705,
			"type":"SCALAR"
		},
		{
			"bufferView":15,
			"componentType":5126,
			"count":77,
			"max":[
				43.13470458984375,
				2.1778368949890137,
				5.956019878387451
			],
			"min":[
				-33.60591506958008,
				-1.6081398725509644,
				-16.298494338989258
			],
			"type":"VEC3"
		},
		{
			"bufferView":16,
			"componentType":5126,
			"count":77,
			"type":"VEC3"
		},
		{
			"bufferView":17,
			"componentType":5126,
			"count":77,
			"type":"VEC2"
		},
		{
			"bufferView":18,
			"componentType":5126,
			"count":77,
			"type":"VEC2"
		},
		{
			"bufferView":19,
			"componentType":5123,
			"count":135,
			"type":"SCALAR"
		},
		{
			"bufferView":20,
			"componentType":5126,
			"count":24,
			"max":[
				-0.8973579406738281,
				-0.8803443908691406,
				1.0576484203338623
			],
			"min":[
				-20.665752410888672,
				-1.6081398725509644,
				-16.290630340576172
			],
			"type":"VEC3"
		},
		{
			"bufferView":21,
			"componentType":5126,
			"count":24,
			"type":"VEC3"
		},
		{
			"bufferView":22,
			"componentType":5126,
			"count":24,
			"type":"VEC2"
		},
		{
			"bufferView":23,
			"componentType":5126,
			"count":24,
			"type":"VEC2"
		},
		{
			"bufferView":24,
			"componentType":5123,
			"count":42,
			"type":"SCALAR"
		},
		{
			"bufferView":25,
			"componentType":5126,
			"count":52,
			"max":[
				-0.23734140396118164,
				1.535106897354126,
				-6.127287864685059
			],
			"min":[
				-1.3991451263427734,
				-0.32484281063079834,
				-11.791844367980957
			],
			"type":"VEC3"
		},
		{
			"bufferView":26,
			"componentType":5126,
			"count":52,
			"type":"VEC3"
		},
		{
			"bufferView":27,
			"componentType":5126,
			"count":52,
			"type":"VEC2"
		},
		{
			"bufferView":28,
			"componentType":5126,
			"count":52,
			"type":"VEC2"
		},
		{
			"bufferView":29,
			"componentType":5123,
			"count":102,
			"type":"SCALAR"
		},
		{
			"bufferView":30,
			"componentType":5126,
			"count":4,
			"max":[
				-1.0725274085998535,
				1.4039537906646729,
				-6.365637302398682
			],
			"min":[
				-1.07252836227417,
				-0.19368976354599,
				-11.553495407104492
			],
			"type":"VEC3"
		},
		{
			"bufferView":31,
			"componentType":5126,
			"count":4,
			"type":"VEC3"
		},
		{
			"bufferView":32,
			"componentType":5126,
			"count":4,
			"type":"VEC2"
		},
		{
			"bufferView":33,
			"componentType":5126,
			"count":4,
			"type":"VEC2"
		},
		{
			"bufferView":34,
			"componentType":5123,
			"count":6,
			"type":"SCALAR"
		},
		{
			"bufferView":35,
			"componentType":5126,
			"count":24,
			"max":[
				-0.8913934826850891,
				1.5421013832092285,
				-13.545726776123047
			],
			"min":[
				-1.3072530031204224,
				0.5947895050048828,
				-15.267314910888672
			],
			"type":"VEC3"
		},
		{
			"bufferView":36,
			"componentType":5126,
			"count":24,
			"type":"VEC3"
		},
		{
			"bufferView":37,
			"componentType":5126,
			"count":24,
			"type":"VEC2"
		},
		{
			"bufferView":38,
			"componentType":5126,
			"count":24,
			"type":"VEC2"
		},
		{
			"bufferView":39,
			"componentType":5123,
			"count":36,
			"type":"SCALAR"
		},
		{
			"bufferView":40,
			"componentType":5126,
			"count":115,
			"max":[
				-1.1733274459838867,
				1.428404450416565,
				-14.0258150100708
			],
			"min":[
				-1.7412686347961426,
				0.7117443680763245,
				-14.824501037597656
			],
			"type":"VEC3"
		},
		{
			"bufferView":41,
			"componentType":5126,
			"count":115,
			"type":"VEC3"
		},
		{
			"bufferView":42,
			"componentType":5126,
			"count":115,
			"type":"VEC2"
		},
		{
			"bufferView":43,
			"componentType":5126,
			"count":115,
			"type":"VEC2"
		},
		{
			"bufferView":44,
			"componentType":5123,
			"count":492,
			"type":"SCALAR"
		}
	],
	"bufferViews":[
		{
			"buffer":0,
			"byteLength":1392,
			"byteOffset":0,
			"target":34962
		},
		{
			"buffer":0,
			"byteLength":1392,
			"byteOffset":1392,
			"target":34962
		},
		{
			"buffer":0,
			"byteLength":928,
			"byteOffset":2784,
			"target":34962
		},
		{
			"buffer":0,
			"byteLength":928,
			"byteOffset":3712,
			"target":34962
		},
		{
			"buffer":0,
			"byteLength":408,
			"byteOffset":4640,
			"target":34963
		},
		{
			"buffer":0,
			"byteLength":96,
			"byteOffset":5048,
			"target":34962
		},
		{
			"buffer":0,
			"byteLength":96,
			"byteOffset":5144,
			"target":34962
		},
		{
			"buffer":0,
			"byteLength":64,
			"byteOffset":5240,
			"target":34962
		},
		{
			"buffer":0,
			"byteLength":64,
			"byteOffset":5304,
			"target":34962
		},
		{
			"buffer":0,
			"byteLength":24,
			"byteOffset":5368,
			"target":34963
		},
		{
			"buffer":0,
			"byteLength":3924,
			"byteOffset":5392,
			"target":34962
		},
		{
			"buffer":0,
			"byteLength":3924,
			"byteOffset":9316,
			"target":34962
		},
		{
			"buffer":0,
			"byteLength":2616,
			"byteOffset":13240,
			"target":34962
		},
		{
			"buffer":0,
			"byteLength":2616,
			"byteOffset":15856,
			"target":34962
		},
		{
			"buffer":0,
			"byteLength":1410,
			"byteOffset":18472,
			"target":34963
		},
		{
			"buffer":0,
			"byteLength":924,
			"byteOffset":19884,
			"target":34962
		},
		{
			"buffer":0,
			"byteLength":924,
			"byteOffset":20808,
			"target":34962
		},
		{
			"buffer":0,
			"byteLength":616,
			"byteOffset":21732,
			"target":34962
		},
		{
			"buffer":0,
			"byteLength":616,
			"byteOffset":22348,
			"target":34962
		},
		{
			"buffer":0,
			"byteLength":270,
			"byteOffset":22964,
			"target":34963
		},
		{
			"buffer":0,
			"byteLength":288,
			"byteOffset":23236,
			"target":34962
		},
		{
			"buffer":0,
			"byteLength":288,
			"byteOffset":23524,
			"target":34962
		},
		{
			"buffer":0,
			"byteLength":192,
			"byteOffset":23812,
			"target":34962
		},
		{
			"buffer":0,
			"byteLength":192,
			"byteOffset":24004,
			"target":34962
		},
		{
			"buffer":0,
			"byteLength":84,
			"byteOffset":24196,
			"target":34963
		},
		{
			"buffer":0,
			"byteLength":624,
			"byteOffset":24280,
			"target":34962
		},
		{
			"buffer":0,
			"byteLength":624,
			"byteOffset":24904,
			"target":34962
		},
		{
			"buffer":0,
			"byteLength":416,
			"byteOffset":25528,
			"target":34962
		},
		{
			"buffer":0,
			"byteLength":416,
			"byteOffset":25944,
			"target":34962
		},
		{
			"buffer":0,
			"byteLength":204,
			"byteOffset":26360,
			"target":34963
		},
		{
			"buffer":0,
			"byteLength":48,
			"byteOffset":26564,
			"target":34962
		},
		{
			"buffer":0,
			"byteLength":48,
			"byteOffset":26612,
			"target":34962
		},
		{
			"buffer":0,
			"byteLength":32,
			"byteOffset":26660,
			"target":34962
		},
		{
			"buffer":0,
			"byteLength":32,
			"byteOffset":26692,
			"target":34962
		},
		{
			"buffer":0,
			"byteLength":12,
			"byteOffset":26724,
			"target":34963
		},
		{
			"buffer":0,
			"byteLength":288,
			"byteOffset":26736,
			"target":34962
		},
		{
			"buffer":0,
			"byteLength":288,
			"byteOffset":27024,
			"target":34962
		},
		{
			"buffer":0,
			"byteLength":192,
			"byteOffset":27312,
			"target":34962
		},
		{
			"buffer":0,
			"byteLength":192,
			"byteOffset":27504,
			"target":34962
		},
		{
			"buffer":0,
			"byteLength":72,
			"byteOffset":27696,
			"target":34963
		},
		{
			"buffer":0,
			"byteLength":1380,
			"byteOffset":27768,
			"target":34962
		},
		{
			"buffer":0,
			"byteLength":1380,
			"byteOffset":29148,
			"target":34962
		},
		{
			"buffer":0,
			"byteLength":920,
			"byteOffset":30528,
			"target":34962
		},
		{
			"buffer":0,
			"byteLength":920,
			"byteOffset":31448,
			"target":34962
		},
		{
			"buffer":0,
			"byteLength":984,
			"byteOffset":32368,
			"target":34963
		}
	],
	"buffers":[
		{
			"byteLength":33352,
			"uri":"data:application/octet-stream;base64,"
		}
	]
}
