{
	"asset":{
		"generator":"Khronos glTF Blender I/O v3.6.28",
		"version":"2.0"
	},
	"scene":0,
	"scenes":[
		{
			"name":"Scene",
			"nodes":[
				0
			]
		}
	],
	"nodes":[
		{
			"mesh":0,
			"name":"Cubo.001",
			"scale":[
				0.4926588237285614,
				0.4926588237285614,
				0.02555571123957634
			],
			"translation":[
				-11.380038261413574,
				3.0537896156311035,
				0.9208707809448242
			]
		}
	],
	"materials":[
		{
			"doubleSided":true,
			"name":"Material",
			"pbrMetallicRoughness":{
				"baseColorFactor":[
					0.800000011920929,
					0.800000011920929,
					0.800000011920929,
					1
				],
				"metallicFactor":0,
				"roughnessFactor":0.5
			}
		}
	],
	"meshes":[
		{
			"name":"Cubo.001",
			"primitives":[
				{
					"attributes":{
						"POSITION":0,
						"NORMAL":1,
						"TEXCOORD_0":2,
						"TEXCOORD_1":3
					},
					"indices":4,
					"material":0
				}
			]
		}
	],
	"accessors":[
		{
			"bufferView":0,
			"componentType":5126,
			"count":1162,
			"max":[
				33.12264633178711,
				4.048569202423096,
				219.90643310546875
			],
			"min":[
				-3.4335689544677734,
				-6.143438339233398,
				-234.7784423828125
			],
			"type":"VEC3"
		},
		{
			"bufferView":1,
			"componentType":5126,
			"count":1162,
			"type":"VEC3"
		},
		{
			"bufferView":2,
			"componentType":5126,
			"count":1162,
			"type":"VEC2"
		},
		{
			"bufferView":3,
			"componentType":5126,
			"count":1162,
			"type":"VEC2"
		},
		{
			"bufferView":4,
			"componentType":5123,
			"count":2520,
			"type":"SCALAR"
		}
	],
	"bufferViews":[
		{
			"buffer":0,
			"byteLength":13944,
			"byteOffset":0,
			"target":34962
		},
		{
			"buffer":0,
			"byteLength":13944,
			"byteOffset":13944,
			"target":34962
		},
		{
			"buffer":0,
			"byteLength":9296,
			"byteOffset":27888,
			"target":34962
		},
		{
			"buffer":0,
			"byteLength":9296,
			"byteOffset":37184,
			"target":34962
		},
		{
			"buffer":0,
			"byteLength":5040,
			"byteOffset":46480,
			"target":34963
		}
	],
	"buffers":[
		{
			"byteLength":51520,
			"uri":"data:application/octet-stream;base64,"
		}
	]
}
