{
	"asset":{
		"generator":"Khronos glTF Blender I/O v3.6.28",
		"version":"2.0"
	},
	"scene":0,
	"scenes":[
		{
			"name":"Scene",
			"nodes":[
				0,
				1
			]
		}
	],
	"nodes":[
		{
			"mesh":0,
			"name":"Texto",
			"rotation":[
				0.703486442565918,
				-0.00526282237842679,
				-0.0001477786136092618,
				0.7106891870498657
			],
			"translation":[
				-5.553647041320801,
				2.716590642929077,
				0.2971106767654419
			]
		},
		{
			"mesh":1,
			"name":"Cubo.003",
			"rotation":[
				0,
				0.7071068286895752,
				0,
				0.7071068286895752
			],
			"scale":[
				0.12290558964014053,
				1.0401195287704468,
				0.57233065366745
			]
		}
	],
	"materials":[
		{
			"doubleSided":true,
			"name":"Material",
			"pbrMetallicRoughness":{
				"baseColorFactor":[
					0.800000011920929,
					0.800000011920929,
					0.800000011920929,
					1
				],
				"metallicFactor":0,
				"roughnessFactor":0.5
			}
		}
	],
	"meshes":[
		{
			"name":"E",
			"primitives":[
				{
					"attributes":{
						"POSITION":0,
						"NORMAL":1,
						"TEXCOORD_0":2
					},
					"indices":3
				}
			]
		},
		{
			"name":"Cubo.003",
			"primitives":[
				{
					"attributes":{
						"POSITION":4,
						"NORMAL":5,
						"TEXCOORD_0":6,
						"TEXCOORD_1":7
					},
					"indices":8,
					"material":0
				}
			]
		}
	],
	"accessors":[
		{
			"bufferView":0,
			"componentType":5126,
			"count":115,
			"max":[
				0.5009999871253967,
				0.029999999329447746,
				0.029999999329447746
			],
			"min":[
				0.04500000178813934,
				-0.029999999329447746,
				-0.7120000123977661
			],
			"type":"VEC3"
		},
		{
			"bufferView":1,
			"componentType":5126,
			"count":115,
			"type":"VEC3"
		},
		{
			"bufferView":2,
			"componentType":5126,
			"count":115,
			"type":"VEC2"
		},
		{
			"bufferView":3,
			"componentType":5123,
			"count":492,
			"type":"SCALAR"
		},
		{
			"bufferView":4,
			"componentType":5126,
			"count":628,
			"max":[
				46.314781188964844,
				4.853628158569336,
				12.025123596191406
			],
			"min":[
				-37.89164733886719,
				0.02612292766571045,
				-11.832642555236816
			],
			"type":"VEC3"
		},
		{
			"bufferView":5,
			"componentType":5126,
			"count":628,
			"type":"VEC3"
		},
		{
			"bufferView":6,
			"componentType":5126,
			"count":628,
			"type":"VEC2"
		},
		{
			"bufferView":7,
			"componentType":5126,
			"count":628,
			"type":"VEC2"
		},
		{
			"bufferView":8,
			"componentType":5123,
			"count":1242,
			"type":"SCALAR"
		}
	],
	"bufferViews":[
		{
			"buffer":0,
			"byteLength":1380,
			"byteOffset":0,
			"target":34962
		},
		{
			"buffer":0,
			"byteLength":1380,
			"byteOffset":1380,
			"target":34962
		},
		{
			"buffer":0,
			"byteLength":920,
			"byteOffset":2760,
			"target":34962
		},
		{
			"buffer":0,
			"byteLength":984,
			"byteOffset":3680,
			"target":34963
		},
		{
			"buffer":0,
			"byteLength":7536,
			"byteOffset":4664,
			"target":34962
		},
		{
			"buffer":0,
			"byteLength":7536,
			"byteOffset":12200,
			"target":34962
		},
		{
			"buffer":0,
			"byteLength":5024,
			"byteOffset":19736,
			"target":34962
		},
		{
			"buffer":0,
			"byteLength":5024,
			"byteOffset":24760,
			"target":34962
		},
		{
			"buffer":0,
			"byteLength":2484,
			"byteOffset":29784,
			"target":34963
		}
	],
	"buffers":[
		{
			"byteLength":32268,
			"uri":"data:application/octet-stream;base64,"
		}
	]
}
